<svg width="20" height="20" viewBox="0 0 20 20" fill="none" xmlns="http://www.w3.org/2000/svg">
<circle cx="10" cy="10" r="10" fill="white"/>
<path d="M7.172 14H3.77C3.73267 13.944 3.714 13.8693 3.714 13.776C3.714 13.6733 3.74667 13.58 3.812 13.496L4.75 13.384V5.614H3.938C3.78867 5.614 3.714 5.54867 3.714 5.418C3.714 5.35267 3.73733 5.24067 3.784 5.082L3.812 4.97H7.298C7.886 4.97 8.38067 5.054 8.782 5.222C9.19267 5.39 9.51933 5.60933 9.762 5.88C10.014 6.15067 10.196 6.44933 10.308 6.776C10.4293 7.09333 10.49 7.406 10.49 7.714C10.49 8.022 10.4293 8.33933 10.308 8.666C10.196 8.98333 10.014 9.27733 9.762 9.548C9.51933 9.81867 9.19267 10.038 8.782 10.206C8.38067 10.374 7.886 10.458 7.298 10.458H5.534V13.356H7.046C7.19533 13.356 7.27 13.4213 7.27 13.552C7.27 13.6173 7.24667 13.7293 7.2 13.888L7.172 14ZM5.534 9.814H7.298C8.026 9.814 8.6 9.62733 9.02 9.254C9.44933 8.87133 9.664 8.358 9.664 7.714C9.664 7.07 9.44933 6.56133 9.02 6.188C8.6 5.80533 8.026 5.614 7.298 5.614H5.534V9.814Z" fill="#B68D40"/>
<path d="M12 14V13.7446C12.2983 13.7446 12.5358 13.727 12.7123 13.6918C12.8889 13.6507 13.0228 13.5832 13.1142 13.4892C13.2055 13.3894 13.2633 13.2544 13.2877 13.0841C13.312 12.908 13.3242 12.6849 13.3242 12.4149V6.58513C13.3242 6.3092 13.312 6.08611 13.2877 5.91585C13.2633 5.73973 13.2055 5.60176 13.1142 5.50196C13.0228 5.40215 12.8889 5.33464 12.7123 5.29941C12.5358 5.25832 12.2983 5.23777 12 5.23777V5H16V5.23777C15.7078 5.23777 15.4734 5.25832 15.2968 5.29941C15.1202 5.33464 14.9833 5.40215 14.8858 5.50196C14.7945 5.60176 14.7336 5.73973 14.7032 5.91585C14.6728 6.08611 14.6575 6.3092 14.6575 6.58513V12.4149C14.6575 12.6849 14.6697 12.908 14.6941 13.0841C14.7245 13.2544 14.7854 13.3894 14.8767 13.4892C14.968 13.5832 15.102 13.6507 15.2785 13.6918C15.4551 13.727 15.6956 13.7446 16 13.7446V14H12Z" fill="black"/>
</svg>
