<svg width="1946" height="486" viewBox="0 0 1946 486" fill="none" xmlns="http://www.w3.org/2000/svg">
<path d="M6 0H190.755C209.926 0 226.281 1.64953 239.82 4.94858C253.479 8.12982 264.621 12.8428 273.248 19.0874C281.875 25.332 288.165 33.1084 292.119 42.4164C296.193 51.7245 298.23 62.4464 298.23 74.5822C298.23 86.718 296.193 97.44 292.119 106.748C288.165 116.056 281.875 123.891 273.248 130.254C264.621 136.616 253.479 141.447 239.82 144.746C226.281 147.927 209.926 149.518 190.755 149.518H80.0459V222.863H131.447V242.834H6V222.863H57.5805V19.7943H6V0ZM273.608 74.5822C273.608 63.0355 271.751 53.7275 268.036 46.6581C264.322 39.5887 258.511 34.1688 250.603 30.3984C242.695 26.5103 232.571 23.9182 220.23 22.6221C208.009 21.326 193.391 20.678 176.377 20.678H80.0459V128.84H176.377C182.967 128.84 189.917 128.899 197.225 129.017C204.654 129.017 211.963 128.663 219.152 127.956C226.46 127.131 233.35 125.777 239.82 123.891C246.41 121.888 252.221 118.884 257.253 114.878C262.285 110.872 266.239 105.629 269.115 99.1484C272.11 92.6681 273.608 84.4794 273.608 74.5822Z" fill="#B68D40"/>
<path d="M553.976 222.863H592.257L527.736 138.207C524.501 138.443 521.146 138.619 517.672 138.737C514.197 138.855 510.602 138.914 506.888 138.914H406.423V222.863H457.824V242.834H332.377V222.863H383.958V19.7943H332.377V0H506.888C525.699 0 541.814 1.47279 555.234 4.41838C568.653 7.24614 579.616 11.6056 588.123 17.4968C596.63 23.2701 602.86 30.5163 606.814 39.2352C610.768 47.9541 612.745 58.1459 612.745 69.8104C612.745 87.9552 607.893 102.506 598.188 113.464C588.482 124.304 572.847 131.727 551.28 135.733L619.754 222.863H672.054V242.834H553.976V222.863ZM588.123 69.8104C588.123 59.4419 586.326 51.0765 582.731 44.714C579.257 38.2337 573.386 33.2262 565.118 29.6915C556.971 26.1568 546.188 23.8003 532.768 22.6221C519.349 21.326 502.755 20.678 482.985 20.678H406.423V118.236H482.086C501.856 118.236 518.45 117.706 531.87 116.645C545.409 115.467 556.312 113.169 564.579 109.753C572.966 106.218 578.957 101.328 582.552 95.0835C586.266 88.721 588.123 80.2967 588.123 69.8104Z" fill="#B68D40"/>
<path d="M686.791 0H812.238V19.7943H760.837V222.863H812.238V242.834H686.791V222.863H738.372V19.7943H686.791V0Z" fill="#B68D40"/>
<path d="M841.712 0H917.196L1062.23 220.035L1204.93 0H1280.78V19.7943H1229.2V222.863H1280.78V242.834H1155.33V222.863H1206.91V36.2307L1071.4 242.834H1051.45L915.758 35.347V222.863H967.159V242.834H841.712V222.863H893.293V19.7943H841.712V0Z" fill="#B68D40"/>
<path d="M1562.58 72.6381V20.678H1384.48V104.274H1521.6V124.775H1384.48V222.156H1565.1V166.484H1585.41V242.834H1310.43V222.863H1362.01V19.7943H1310.43V0H1582.71V72.6381H1562.58Z" fill="#B68D40"/>
<path d="M1814.37 0H1936.23V19.7943H1886.98L1791.73 118.236L1892.91 222.863H1940V242.834H1814.37V222.863H1864.52L1777.35 133.082L1690.01 222.863H1740.51V242.834H1614.88V222.863H1661.79L1763.33 118.236L1667.54 19.7943H1618.66V0H1740.51V19.7943H1695.94L1777.35 103.92L1858.59 19.7943H1814.37V0Z" fill="#B68D40"/>
<path d="M62.6597 478.132L86.1051 481.362V483.515H6V481.362L29.4454 478.132V338.173L6 334.944V332.79H86.1051V334.944L62.6597 338.173V478.132Z" fill="#122620"/>
<path d="M549.121 340.327L523.722 334.944V332.79H582.335V334.944L556.936 340.327V485.668H551.075L418.218 351.093V475.979L443.617 481.362V483.515H385.003V481.362L410.402 475.979V339.25L385.003 334.944V332.79H437.755L549.121 445.834V340.327Z" fill="#122620"/>
<path d="M949.631 332.79C966.824 332.79 982.585 334.513 996.913 337.958C1011.5 341.403 1024.14 346.356 1034.82 352.815C1045.5 359.275 1053.83 367.17 1059.82 376.5C1065.82 385.831 1068.81 396.382 1068.81 408.153C1068.81 420.067 1065.82 430.69 1059.82 440.02C1053.83 449.351 1045.5 457.246 1034.82 463.705C1024.14 470.165 1011.5 475.117 996.913 478.563C982.585 481.864 966.824 483.515 949.631 483.515H881.249V481.362L904.694 478.132V408.153V338.173L881.249 334.944V332.79H949.631ZM937.908 337.097V479.209H949.631C960.833 479.209 971.383 477.917 981.282 475.333C991.442 472.605 1000.17 468.371 1007.46 462.629C1015.02 456.887 1020.88 449.566 1025.05 440.666C1029.48 431.623 1031.69 420.785 1031.69 408.153C1031.69 395.521 1029.48 384.754 1025.05 375.855C1020.88 366.811 1015.02 359.418 1007.46 353.676C1000.17 347.935 991.442 343.772 981.282 341.188C971.383 338.46 960.833 337.097 949.631 337.097H937.908Z" fill="#122620"/>
<path d="M1422.28 478.132L1445.72 481.362V483.515H1365.62V481.362L1389.06 478.132V338.173L1365.62 334.944V332.79H1445.72V334.944L1422.28 338.173V478.132Z" fill="#122620"/>
<path d="M1859.9 439.374H1779.79L1760.25 475.979L1785.65 481.362V483.515H1727.04V481.362L1752.44 475.979L1828.63 329.561H1834.5L1916.55 478.132L1940 481.362V483.515H1857.94V481.362L1881.39 478.132L1859.9 439.374ZM1781.74 435.283H1857.55L1818.47 364.012L1781.74 435.283Z" fill="#122620"/>
<path d="M9.03122 283.158L1936.96 280.478" stroke="#B68D40" stroke-width="17" stroke-linecap="square"/>
</svg>
